<svg width="44" height="46" viewBox="0 0 44 46" fill="none" xmlns="http://www.w3.org/2000/svg">
<g clip-path="url(#clip0)">
<path d="M42.4934 25.8775C42.4044 25.0994 42.1517 24.3515 41.7542 23.6872C41.7817 23.611 41.7972 23.5306 41.7999 23.4492V1.98253C41.7999 1.55928 41.4716 1.21605 41.0667 1.21605C40.6615 1.21605 40.3332 1.55928 40.3332 1.98253V6.15921C38.0764 4.03033 32.6905 0.449219 22 0.449219C11.3095 0.449219 5.92365 4.03033 3.66678 6.15956V1.98253C3.66678 1.55928 3.33847 1.21605 2.93329 1.21605C2.52844 1.21605 2.20013 1.55928 2.20013 1.98253V23.4492C2.20282 23.5306 2.21826 23.6107 2.24579 23.6868C1.84833 24.3512 1.59555 25.0994 1.50659 25.8775C0.609955 26.1873 0.00302124 27.0619 0 28.0491V40.316C0.00134277 41.5857 0.985596 42.6144 2.20013 42.6158H2.93329C2.93497 44.3088 4.24719 45.6806 5.86658 45.6824H7.33322C8.95261 45.6806 10.2648 44.3088 10.2665 42.6158H33.7335C33.7348 44.3088 35.0474 45.681 36.6668 45.6824H38.1334C39.7528 45.681 41.065 44.3088 41.0667 42.6158H41.7999C43.0144 42.6144 43.9987 41.5857 44 40.316V28.0491C43.997 27.0619 43.39 26.1873 42.4934 25.8775ZM3.66678 11.4414C4.46506 10.4142 9.25104 5.04915 22 5.04915C34.7527 5.04915 39.5373 10.4163 40.3332 11.441V22.1181C39.4742 21.4874 38.45 21.1487 37.3999 21.1491V17.316C37.3976 15.1997 35.7574 13.485 33.7335 13.4825H24.9333C23.7748 13.4857 22.6862 14.0637 22 15.0397C21.3138 14.0637 20.2252 13.4857 19.0667 13.4825H10.2665C8.24261 13.485 6.60242 15.1997 6.60007 17.316V21.1491C5.55002 21.1487 4.52582 21.487 3.66678 22.1181V11.4414ZM8.06671 21.1491V17.316C8.06805 16.0462 9.05231 15.0172 10.2665 15.0158H19.0667C20.2812 15.0172 21.2652 16.0462 21.2665 17.316V21.1491H8.06671ZM22.7335 17.316C22.7348 16.0462 23.7188 15.0172 24.9333 15.0158H33.7335C34.9477 15.0172 35.9319 16.0462 35.9333 17.316V21.1491H22.7335V17.316ZM6.60007 22.6824H37.3999C39.1415 22.6848 40.6421 23.9658 40.9929 25.7494H3.00714C3.3576 23.9658 4.85849 22.6848 6.60007 22.6824ZM22 1.98253C34.7527 1.98253 39.5373 7.34964 40.3332 8.37442V9.22583C38.0764 7.09695 32.6905 3.51584 22 3.51584C11.3095 3.51584 5.92365 7.09731 3.66678 9.22618V8.37477C4.46506 7.34753 9.25104 1.98253 22 1.98253ZM7.33322 44.1491H5.86658C5.05688 44.1484 4.40094 43.4623 4.39993 42.6158H8.79987C8.79919 43.4623 8.14291 44.1484 7.33322 44.1491ZM38.1334 44.1491H36.6668C35.8571 44.148 35.2011 43.4623 35.2001 42.6158H39.6001C39.5991 43.4623 38.9428 44.148 38.1334 44.1491ZM42.5334 40.316C42.533 40.7392 42.205 41.0825 41.7999 41.0825H2.20013C1.79529 41.0821 1.46698 40.7392 1.46664 40.316V28.0491C1.46698 27.6259 1.79529 27.283 2.20013 27.2827H41.7999C42.205 27.2827 42.533 27.6259 42.5334 28.0491V40.316Z" fill="#866E52" fill-opacity="0.5"/>
<path d="M11 17.3159C10.5951 17.3159 10.2665 17.6591 10.2665 18.0824V18.8492C10.2665 19.2725 10.5951 19.6157 11 19.6157C11.4048 19.6157 11.7335 19.2725 11.7335 18.8492V18.0824C11.7335 17.6591 11.4048 17.3159 11 17.3159Z" fill="#866E52" fill-opacity="0.5"/>
<path d="M18.3332 17.3159C17.9283 17.3159 17.6 17.6591 17.6 18.0824V18.8492C17.6 19.2725 17.9283 19.6157 18.3332 19.6157C18.7384 19.6157 19.0667 19.2725 19.0667 18.8492V18.0824C19.0667 17.6591 18.7384 17.3159 18.3332 17.3159Z" fill="#866E52" fill-opacity="0.5"/>
<path d="M25.6668 17.3159C25.2616 17.3159 24.9333 17.6591 24.9333 18.0824V18.8492C24.9333 19.2725 25.2616 19.6157 25.6668 19.6157C26.0716 19.6157 26.3999 19.2725 26.3999 18.8492V18.0824C26.3999 17.6591 26.0716 17.3159 25.6668 17.3159Z" fill="#866E52" fill-opacity="0.5"/>
<path d="M33 17.3159C32.5951 17.3159 32.2665 17.6591 32.2665 18.0824V18.8492C32.2665 19.2725 32.5951 19.6157 33 19.6157C33.4048 19.6157 33.7335 19.2725 33.7335 18.8492V18.0824C33.7335 17.6591 33.4048 17.3159 33 17.3159Z" fill="#866E52" fill-opacity="0.5"/>
<path d="M5.13342 28.8159H3.66678C3.2616 28.8159 2.93329 29.1591 2.93329 29.5824C2.93329 30.006 3.2616 30.3492 3.66678 30.3492H5.13342C5.53827 30.3492 5.86658 30.006 5.86658 29.5824C5.86658 29.1591 5.53827 28.8159 5.13342 28.8159Z" fill="#866E52" fill-opacity="0.5"/>
<path d="M29.3332 28.8159H8.06668C7.6615 28.8159 7.33319 29.1591 7.33319 29.5824C7.33319 30.006 7.6615 30.3492 8.06668 30.3492H29.3332C29.7384 30.3492 30.0667 30.006 30.0667 29.5824C30.0667 29.1591 29.7384 28.8159 29.3332 28.8159Z" fill="#866E52" fill-opacity="0.5"/>
</g>
<defs>
<clipPath id="clip0">
<rect width="44" height="46" fill="white"/>
</clipPath>
</defs>
</svg>
