<svg width="47" height="46" viewBox="0 0 47 46" fill="none" xmlns="http://www.w3.org/2000/svg">
<g clip-path="url(#clip0)">
<path d="M45.4496 0H0.7705C0.344873 0 0 0.343231 0 0.76683V26.0666C0 26.4902 0.344873 26.8335 0.7705 26.8335H13.8662V45.2332C13.8662 45.6568 14.211 46 14.6363 46H45.4496C45.8752 46 46.2201 45.6568 46.2201 45.2332V0.76683C46.2201 0.343231 45.8752 0 45.4496 0V0ZM44.6795 44.4667H15.4068V26.0666C15.4068 25.6434 15.0619 25.3001 14.6363 25.3001H1.54065V1.53331H44.6795V44.4667Z" fill="#4F4F4F"/>
<path d="M3.85204 23.7669H14.6366C15.0622 23.7669 15.4071 23.4233 15.4071 23V18.4001H16.9477V23C16.9477 23.4233 17.2926 23.7669 17.7179 23.7669H27.7322V25.3002H17.7179C17.2926 25.3002 16.9477 25.6434 16.9477 26.0667V42.1666C16.9477 42.5902 17.2926 42.9334 17.7179 42.9334H29.2105C29.2397 42.9411 29.2697 42.9471 29.3 42.9513H29.3032L33.8775 42.9334H42.3686C42.7942 42.9334 43.1391 42.5902 43.1391 42.1666V26.0667C43.1391 25.6434 42.7942 25.3002 42.3686 25.3002H39.2873V23.7669H42.3686C42.7942 23.7669 43.1391 23.4233 43.1391 23V3.83348C43.1391 3.40988 42.7942 3.06665 42.3686 3.06665H17.7179C17.2926 3.06665 16.9477 3.40988 16.9477 3.83348V6.9001H15.4071V3.83348C15.4071 3.40988 15.0622 3.06665 14.6366 3.06665H3.85204C3.42642 3.06665 3.08154 3.40988 3.08154 3.83348V23C3.08154 23.4233 3.42642 23.7669 3.85204 23.7669ZM18.4884 29.9001H21.5697V38.3335H18.4884V29.9001ZM30.0201 31.4303L37.7237 31.3997L37.7523 37.5516L33.904 37.5667L30.0487 37.5821L30.0201 31.4303ZM34.6808 39.0972L37.7597 39.0852L37.7699 41.3847L34.6893 41.3969L34.6808 39.0972ZM30.0564 39.1151L33.1402 39.1031L33.1487 41.4001H30.0663L30.0564 39.1151ZM26.9621 7.66658H28.5027V10.7332H26.9621V7.66658ZM30.0434 7.66658H34.6653V9.96672H30.0434V7.66658ZM36.206 7.66658H37.7466V10.7332H36.206V7.66658ZM38.5171 4.59996V6.13327H26.1916V4.59996H38.5171ZM13.8664 4.59996V7.66658C13.8664 8.09018 14.2113 8.43341 14.6366 8.43341H17.3476L23.2792 15.8122C23.5447 16.1428 24.0296 16.1968 24.3621 15.9322C24.6943 15.6679 24.7483 15.1854 24.4827 14.8544L18.4884 7.3974V4.59996H24.6509V6.9001C24.6509 7.32335 24.9958 7.66658 25.4214 7.66658V11.5C25.4214 11.9233 25.7663 12.2669 26.1916 12.2669H29.2729C29.6985 12.2669 30.0434 11.9233 30.0434 11.5H34.6653C34.6653 11.9233 35.0102 12.2669 35.4358 12.2669H38.5171C38.9424 12.2669 39.2873 11.9233 39.2873 11.5V7.66658C39.7129 7.66658 40.0578 7.32335 40.0578 6.9001V4.59996H41.5984V22.2332H38.7597L31.2554 17.0051C30.9066 16.7696 30.4327 16.8563 30.1911 17.1998C29.9496 17.5434 30.0303 18.0165 30.372 18.2615L37.7466 23.3991V26.0667C37.7466 26.4903 38.0915 26.8335 38.5171 26.8335H41.5984V41.4001H39.3109L39.2964 38.3272C39.2964 38.3219 39.2993 38.3177 39.2993 38.3124C39.2993 38.3072 39.2964 38.303 39.2964 38.2977L39.2601 30.6266C39.258 30.2047 38.9138 29.864 38.49 29.8636H38.4868L29.2429 29.9001C29.0384 29.9008 28.8427 29.9826 28.6988 30.1268C28.5549 30.2714 28.4745 30.4669 28.4756 30.6704L28.5257 41.4001H18.4884V39.8668H22.3398C22.7654 39.8668 23.1103 39.5236 23.1103 39.1V29.1333C23.1103 28.71 22.7654 28.3668 22.3398 28.3668H18.4884V26.8335H28.5027C28.928 26.8335 29.2729 26.4903 29.2729 26.0667V23C29.2729 22.5768 28.928 22.2332 28.5027 22.2332H18.4884V17.6333C18.4884 17.21 18.1435 16.8668 17.7179 16.8668H14.6366C14.2113 16.8668 13.8664 17.21 13.8664 17.6333V22.2332H4.62219V20.6999H8.47398C8.89926 20.6999 9.24413 20.3567 9.24413 19.9334V6.9001C9.24413 6.4765 8.89926 6.13327 8.47398 6.13327H4.62219V4.59996H13.8664ZM4.62219 7.66658H7.70348V19.1666H4.62219V7.66658Z" fill="#4F4F4F"/>
</g>
<defs>
<clipPath id="clip0">
<rect width="46.2201" height="46" fill="white"/>
</clipPath>
</defs>
</svg>
