<svg width="47" height="46" viewBox="0 0 47 46" fill="none" xmlns="http://www.w3.org/2000/svg">
<g clip-path="url(#clip0)">
<path d="M45.4496 0H0.7705C0.344873 0 0 0.343231 0 0.76683V26.0666C0 26.4902 0.344873 26.8335 0.7705 26.8335H13.8662V45.2332C13.8662 45.6568 14.211 46 14.6363 46H45.4496C45.8752 46 46.2201 45.6568 46.2201 45.2332V0.76683C46.2201 0.343231 45.8752 0 45.4496 0V0ZM44.6795 44.4667H15.4068V26.0666C15.4068 25.6434 15.0619 25.3001 14.6363 25.3001H1.54065V1.53331H44.6795V44.4667Z" fill="#866E52" fill-opacity="0.5"/>
<path d="M3.8518 23.7669H14.6363C15.0619 23.7669 15.4068 23.4233 15.4068 23V18.4001H16.9475V23C16.9475 23.4233 17.2923 23.7669 17.7176 23.7669H27.732V25.3002H17.7176C17.2923 25.3002 16.9475 25.6434 16.9475 26.0667V42.1666C16.9475 42.5902 17.2923 42.9334 17.7176 42.9334H29.2102C29.2395 42.9411 29.2695 42.9471 29.2998 42.9513H29.303L33.8773 42.9334H42.3683C42.7939 42.9334 43.1388 42.5902 43.1388 42.1666V26.0667C43.1388 25.6434 42.7939 25.3002 42.3683 25.3002H39.287V23.7669H42.3683C42.7939 23.7669 43.1388 23.4233 43.1388 23V3.83348C43.1388 3.40988 42.7939 3.06665 42.3683 3.06665H17.7176C17.2923 3.06665 16.9475 3.40988 16.9475 3.83348V6.9001H15.4068V3.83348C15.4068 3.40988 15.0619 3.06665 14.6363 3.06665H3.8518C3.42617 3.06665 3.0813 3.40988 3.0813 3.83348V23C3.0813 23.4233 3.42617 23.7669 3.8518 23.7669ZM18.4881 29.9001H21.5694V38.3335H18.4881V29.9001ZM30.0199 31.4303L37.7235 31.3997L37.752 37.5516L33.9037 37.5667L30.0484 37.5821L30.0199 31.4303ZM34.6806 39.0972L37.7594 39.0852L37.7696 41.3847L34.6891 41.3969L34.6806 39.0972ZM30.0562 39.1151L33.1399 39.1031L33.1484 41.4001H30.0661L30.0562 39.1151ZM26.9618 7.66658H28.5025V10.7332H26.9618V7.66658ZM30.0431 7.66658H34.6651V9.96672H30.0431V7.66658ZM36.2057 7.66658H37.7464V10.7332H36.2057V7.66658ZM38.5169 4.59996V6.13327H26.1913V4.59996H38.5169ZM13.8662 4.59996V7.66658C13.8662 8.09018 14.2111 8.43341 14.6363 8.43341H17.3474L23.279 15.8122C23.5445 16.1428 24.0294 16.1968 24.3619 15.9322C24.6941 15.6679 24.748 15.1854 24.4825 14.8544L18.4881 7.3974V4.59996H24.6507V6.9001C24.6507 7.32335 24.9956 7.66658 25.4212 7.66658V11.5C25.4212 11.9233 25.7661 12.2669 26.1913 12.2669H29.2726C29.6983 12.2669 30.0431 11.9233 30.0431 11.5H34.6651C34.6651 11.9233 35.01 12.2669 35.4356 12.2669H38.5169C38.9421 12.2669 39.287 11.9233 39.287 11.5V7.66658C39.7126 7.66658 40.0575 7.32335 40.0575 6.9001V4.59996H41.5982V22.2332H38.7595L31.2551 17.0051C30.9064 16.7696 30.4324 16.8563 30.1909 17.1998C29.9493 17.5434 30.0301 18.0165 30.3718 18.2615L37.7464 23.3991V26.0667C37.7464 26.4903 38.0912 26.8335 38.5169 26.8335H41.5982V41.4001H39.3106L39.2962 38.3272C39.2962 38.3219 39.299 38.3177 39.299 38.3124C39.299 38.3072 39.2962 38.303 39.2962 38.2977L39.2599 30.6266C39.2578 30.2047 38.9136 29.864 38.4897 29.8636H38.4865L29.2427 29.9001C29.0381 29.9008 28.8424 29.9826 28.6986 30.1268C28.5547 30.2714 28.4743 30.4669 28.4753 30.6704L28.5254 41.4001H18.4881V39.8668H22.3396C22.7652 39.8668 23.1101 39.5236 23.1101 39.1V29.1333C23.1101 28.71 22.7652 28.3668 22.3396 28.3668H18.4881V26.8335H28.5025C28.9278 26.8335 29.2726 26.4903 29.2726 26.0667V23C29.2726 22.5768 28.9278 22.2332 28.5025 22.2332H18.4881V17.6333C18.4881 17.21 18.1432 16.8668 17.7176 16.8668H14.6363C14.2111 16.8668 13.8662 17.21 13.8662 17.6333V22.2332H4.62195V20.6999H8.47374C8.89901 20.6999 9.24389 20.3567 9.24389 19.9334V6.9001C9.24389 6.4765 8.89901 6.13327 8.47374 6.13327H4.62195V4.59996H13.8662ZM4.62195 7.66658H7.70324V19.1666H4.62195V7.66658Z" fill="#866E52" fill-opacity="0.5"/>
</g>
<defs>
<clipPath id="clip0">
<rect width="46.2201" height="46" fill="white"/>
</clipPath>
</defs>
</svg>
