<svg width="45" height="45" viewBox="0 0 45 45" fill="none" xmlns="http://www.w3.org/2000/svg">
<g clip-path="url(#clip0)">
<path d="M19.482 37.5C19.2899 33.7497 17.2208 30.3488 13.9785 28.4543L8.7975 22.698C8.10066 21.9084 7.01991 21.5764 6 21.8385V12C6 10.3432 4.65684 9 3 9C1.34316 9 0 10.3432 0 12V26.1952C0.00075 27.3428 0.293156 28.4714 0.84975 29.475L7.5 41.4443V44.25C7.5 44.6642 7.83581 45 8.25 45H18.75C19.1642 45 19.5 44.6642 19.5 44.25V37.5H19.482ZM18 43.5H9V41.25C9 41.1224 8.96747 40.997 8.9055 40.8855L2.16075 28.7453C1.72819 27.9649 1.50084 27.0875 1.5 26.1952V12C1.5 11.1715 2.17153 10.5 3 10.5C3.82847 10.5 4.5 11.1715 4.5 12V22.7648C3.56156 23.8553 3.58312 25.4743 4.55025 26.5395L10.695 33.3L11.805 32.2905L5.66025 25.5308C5.1705 24.9921 5.19028 24.1636 5.70525 23.649C6.23719 23.1166 7.10006 23.1162 7.63247 23.6483C7.64981 23.6656 7.66659 23.6833 7.683 23.7015L12.9427 29.5455C13.0097 29.6128 13.0853 29.6708 13.1677 29.718C16.1527 31.4283 17.9956 34.6036 18 38.0438V43.5Z" fill="#EAEAEA"/>
<path d="M42 9C40.3432 9 39 10.3432 39 12V21.8385C38.7569 21.777 38.5068 21.7473 38.256 21.75C37.4698 21.7675 36.7262 22.1106 36.2025 22.6973L31.023 28.452C27.7763 30.3434 25.7054 33.7473 25.518 37.5H25.5V44.25C25.5 44.6642 25.8358 45 26.25 45H36.75C37.1642 45 37.5 44.6642 37.5 44.25V41.4428L44.0677 29.5387C44.6778 28.5014 44.9996 27.32 45 26.1165V12C45 10.3432 43.6568 9 42 9ZM43.5 26.1165C43.4989 27.0593 43.2451 27.9848 42.765 28.7963L36.09 40.8878C36.0299 40.999 35.999 41.1236 36 41.25V43.5H27V38.0438C27.0092 34.5902 28.8678 31.4062 31.8705 29.7C31.9403 29.6603 32.0034 29.6097 32.0572 29.55L37.317 23.7C37.8221 23.1408 38.6849 23.097 39.2441 23.6021C39.8033 24.1073 39.8471 24.97 39.342 25.5293L33.195 32.289L34.305 33.3L40.4497 26.541C41.4178 25.4755 41.4393 23.8555 40.5 22.7648V12C40.5 11.1715 41.1715 10.5 42 10.5C42.8285 10.5 43.5 11.1715 43.5 12V26.1165Z" fill="#EAEAEA"/>
<path d="M31.5 18.75H30C27.3096 18.7529 24.7898 20.0688 23.25 22.275V17.25H24C28.5541 17.2447 32.2447 13.5541 32.25 9C32.25 8.58581 31.9142 8.25 31.5 8.25H30C27.3096 8.25291 24.7898 9.56878 23.25 11.775V6.75H24C27.3122 6.74625 29.9963 4.06219 30 0.75C30 0.335812 29.6642 0 29.25 0H27.75C25.5658 0.0013125 23.555 1.1895 22.5 3.102C21.445 1.1895 19.4342 0.0013125 17.25 0H15.75C15.3358 0 15 0.335812 15 0.75C15.0038 4.06219 17.6878 6.74625 21 6.75H21.75V11.775C20.2102 9.56878 17.6904 8.25291 15 8.25H13.5C13.0858 8.25 12.75 8.58581 12.75 9C12.7553 13.5541 16.4459 17.2447 21 17.25H21.75V22.275C20.2102 20.0688 17.6904 18.7529 15 18.75H13.5C13.0858 18.75 12.75 19.0858 12.75 19.5C12.7553 24.0541 16.4459 27.7447 21 27.75H21.75V33.75H23.25V27.75H24C28.5541 27.7447 32.2447 24.0541 32.25 19.5C32.25 19.0858 31.9142 18.75 31.5 18.75ZM30 9.75H30.7087C30.3225 13.1645 27.4362 15.7459 24 15.75H23.2913C23.6775 12.3355 26.5638 9.75412 30 9.75ZM27.75 1.5H28.4377C28.0688 3.66375 26.195 5.24728 24 5.25H23.3123C23.6812 3.08625 25.555 1.50272 27.75 1.5ZM21 5.25C18.805 5.24728 16.9312 3.66375 16.5623 1.5H17.25C19.445 1.50272 21.3188 3.08625 21.6877 5.25H21ZM21 15.75C17.5638 15.7459 14.6775 13.1645 14.2913 9.75H15C18.4362 9.75412 21.3225 12.3355 21.7087 15.75H21ZM21 26.25C17.5638 26.2459 14.6775 23.6645 14.2913 20.25H15C18.4362 20.2541 21.3225 22.8355 21.7087 26.25H21ZM24 26.25H23.2913C23.6775 22.8355 26.5638 20.2541 30 20.25H30.7087C30.3225 23.6645 27.4362 26.2459 24 26.25Z" fill="#EAEAEA"/>
</g>
<defs>
<clipPath id="clip0">
<rect width="45" height="45" fill="white"/>
</clipPath>
</defs>
</svg>
