<svg width="50" height="50" viewBox="0 0 50 50" fill="none" xmlns="http://www.w3.org/2000/svg">
<path d="M44.9513 16.3511H40.7021C40.2977 16.3511 39.9697 16.6791 39.9697 17.0835C39.9697 17.4879 40.2977 17.8159 40.7021 17.8159H44.9513C45.3556 17.8159 45.6837 17.4879 45.6837 17.0835C45.6837 16.6791 45.3556 16.3511 44.9513 16.3511Z" fill="#EAEAEA"/>
<path d="M40.7021 11.8799H42.6312C43.0355 11.8799 43.3636 11.5518 43.3636 11.1475C43.3636 10.7427 43.0355 10.415 42.6312 10.415H40.7021C40.2977 10.415 39.9697 10.7427 39.9697 11.1475C39.9697 11.5518 40.2977 11.8799 40.7021 11.8799Z" fill="#EAEAEA"/>
<path d="M40.7021 5.94385H43.3148C43.7195 5.94385 44.0472 5.61617 44.0472 5.21143C44.0472 4.80707 43.7195 4.479 43.3148 4.479H40.7021C40.2977 4.479 39.9697 4.80707 39.9697 5.21143C39.9697 5.61617 40.2977 5.94385 40.7021 5.94385Z" fill="#EAEAEA"/>
<path d="M43.3152 28.2236H40.7021C40.2977 28.2236 39.9697 28.5513 39.9697 28.9561C39.9697 29.3604 40.2977 29.6885 40.7021 29.6885H43.3152C43.7195 29.6885 44.0476 29.3604 44.0476 28.9561C44.0476 28.5513 43.7195 28.2236 43.3152 28.2236Z" fill="#EAEAEA"/>
<path d="M40.7021 23.7524H42.6312C43.0355 23.7524 43.3636 23.4248 43.3636 23.02C43.3636 22.6157 43.0355 22.2876 42.6312 22.2876H40.7021C40.2977 22.2876 39.9697 22.6157 39.9697 23.02C39.9697 23.4248 40.2977 23.7524 40.7021 23.7524Z" fill="#EAEAEA"/>
<path d="M37.5221 30.2544V6.62498C37.5221 2.97203 34.5505 0 30.8972 0C27.2446 0 24.2726 2.97203 24.2726 6.62498V30.2544C21.5359 32.3273 19.9131 35.5736 19.9131 39.016C19.9131 45.0726 24.8406 50 30.8972 50C36.9541 50 41.8816 45.0726 41.8816 39.016C41.8816 35.5736 40.2592 32.3273 37.5221 30.2544ZM30.8972 48.5352C25.6485 48.5352 21.378 44.265 21.378 39.016C21.378 35.9215 22.8916 33.009 25.4265 31.2256C25.6214 31.0883 25.7374 30.8647 25.7374 30.6263V6.62498C25.7374 3.7796 28.0522 1.46484 30.8972 1.46484C33.7425 1.46484 36.0573 3.7796 36.0573 6.62498V30.6263C36.0573 30.8647 36.1733 31.0883 36.3682 31.2256C38.9031 33.0093 40.4167 35.9215 40.4167 39.016C40.4167 44.265 36.1462 48.5352 30.8972 48.5352Z" fill="#EAEAEA"/>
<path d="M34.1034 31.7061V6.6252C34.1034 4.85709 32.6652 3.41895 30.8971 3.41895C29.1294 3.41895 27.6913 4.85709 27.6913 6.6252V25.4355C27.6913 25.8402 28.0193 26.1679 28.4237 26.1679C28.828 26.1679 29.1561 25.8402 29.1561 25.4355V11.8803H32.6385V32.1963C32.6385 32.5022 32.8285 32.7761 33.115 32.8829C35.5854 33.803 37.2448 36.1929 37.2448 38.83C37.2448 42.3304 34.3975 45.1777 30.8971 45.1777C27.3971 45.1777 24.5495 42.3304 24.5495 38.83C24.5495 36.1929 26.2092 33.803 28.6793 32.8829C28.9661 32.7757 29.1561 32.5022 29.1561 32.1963V28.3659C29.1561 27.9616 28.828 27.6335 28.4237 27.6335C28.0193 27.6335 27.6913 27.9616 27.6913 28.3659V31.7061C24.9161 32.9565 23.0846 35.7573 23.0846 38.83C23.0846 43.138 26.5896 46.6425 30.8971 46.6425C35.2051 46.6425 38.7096 43.138 38.7096 38.83C38.7096 35.7573 36.8786 32.9569 34.1034 31.7061ZM29.1561 10.4155V6.6252C29.1561 5.66504 29.9373 4.88379 30.8975 4.88379C31.8573 4.88379 32.6385 5.66504 32.6385 6.6252V10.4155H29.1561Z" fill="#EAEAEA"/>
<path d="M20.1 15.6413C21.1933 15.7417 21.6652 14.2867 20.7226 13.7264C19.5763 13.045 19.5744 11.3853 20.7226 10.7028C21.666 10.1417 21.1922 8.68714 20.1 8.78746C18.771 8.91068 17.796 7.56676 18.3228 6.34148C18.7565 5.33325 17.5179 4.43451 16.6939 5.15778C15.6918 6.03745 14.1121 5.52628 13.818 4.22356C13.5762 3.15277 12.0461 3.15392 11.8046 4.22356C11.5109 5.52399 9.93274 6.03859 8.92871 5.15778C8.10435 4.43375 6.86648 5.33364 7.29983 6.34148C7.82741 7.5679 6.85046 8.9103 5.52257 8.78746C4.42966 8.6879 3.9574 10.1421 4.90039 10.7028C6.04823 11.3853 6.04594 13.0454 4.90001 13.7264C3.95778 14.2867 4.42927 15.7413 5.52257 15.6413C6.85008 15.5181 7.82741 16.8609 7.29983 18.0873C6.8661 19.0955 8.10474 19.9943 8.92871 19.271C9.93083 18.3913 11.5105 18.9029 11.8046 20.2052C12.0465 21.276 13.5765 21.2749 13.818 20.2052C14.1117 18.9048 15.6903 18.3898 16.6939 19.271C17.5186 19.9947 18.7565 19.0948 18.3228 18.0873C17.7964 16.8636 18.7702 15.5185 20.1 15.6413ZM19.1323 14.268C17.6544 14.6449 16.6184 16.051 16.7179 17.591C15.3008 17.0272 13.6364 17.5559 12.8117 18.8606C11.9953 17.5693 10.3375 17.0211 8.90506 17.591C9.00386 16.0655 7.98343 14.6487 6.49074 14.268C7.46501 13.0946 7.47645 11.3483 6.49074 10.1608C7.97542 9.78234 9.00424 8.37166 8.90506 6.83777C10.3253 7.40273 11.9885 6.87058 12.8117 5.56862C13.6303 6.86371 15.2897 7.40578 16.7179 6.83777C16.6191 8.36327 17.6396 9.78005 19.1323 10.1608C18.153 11.3403 18.1507 13.0862 19.1323 14.268Z" fill="#EAEAEA"/>
<path d="M12.8113 8.17627C10.5846 8.17627 8.77341 9.98787 8.77341 12.2145C8.77341 14.4411 10.5846 16.2527 12.8113 16.2527C15.0379 16.2527 16.8495 14.4411 16.8495 12.2145C16.8495 9.98787 15.0379 8.17627 12.8113 8.17627ZM12.8113 14.7875C11.3926 14.7875 10.2383 13.6332 10.2383 12.2145C10.2383 10.7954 11.3926 9.64111 12.8113 9.64111C14.2303 9.64111 15.3847 10.7954 15.3847 12.2145C15.3847 13.6332 14.2303 14.7875 12.8113 14.7875Z" fill="#EAEAEA"/>
</svg>
