<svg width="50" height="50" viewBox="0 0 50 50" fill="none" xmlns="http://www.w3.org/2000/svg">
<path d="M44.9513 16.3511H40.7021C40.2978 16.3511 39.9697 16.6791 39.9697 17.0835C39.9697 17.4879 40.2978 17.8159 40.7021 17.8159H44.9513C45.3557 17.8159 45.6838 17.4879 45.6838 17.0835C45.6838 16.6791 45.3557 16.3511 44.9513 16.3511Z" fill="#866E52" fill-opacity="0.5"/>
<path d="M40.7021 11.8801H42.6312C43.0356 11.8801 43.3637 11.5521 43.3637 11.1477C43.3637 10.743 43.0356 10.4153 42.6312 10.4153H40.7021C40.2978 10.4153 39.9697 10.743 39.9697 11.1477C39.9697 11.5521 40.2978 11.8801 40.7021 11.8801Z" fill="#866E52" fill-opacity="0.5"/>
<path d="M40.7021 5.94385H43.3148C43.7196 5.94385 44.0473 5.61617 44.0473 5.21143C44.0473 4.80707 43.7196 4.479 43.3148 4.479H40.7021C40.2978 4.479 39.9697 4.80707 39.9697 5.21143C39.9697 5.61617 40.2978 5.94385 40.7021 5.94385Z" fill="#866E52" fill-opacity="0.5"/>
<path d="M43.3152 28.2236H40.7021C40.2978 28.2236 39.9697 28.5513 39.9697 28.9561C39.9697 29.3604 40.2978 29.6885 40.7021 29.6885H43.3152C43.7196 29.6885 44.0476 29.3604 44.0476 28.9561C44.0476 28.5513 43.7196 28.2236 43.3152 28.2236Z" fill="#866E52" fill-opacity="0.5"/>
<path d="M40.7021 23.7522H42.6312C43.0356 23.7522 43.3637 23.4245 43.3637 23.0198C43.3637 22.6154 43.0356 22.2874 42.6312 22.2874H40.7021C40.2978 22.2874 39.9697 22.6154 39.9697 23.0198C39.9697 23.4245 40.2978 23.7522 40.7021 23.7522Z" fill="#866E52" fill-opacity="0.5"/>
<path d="M37.5221 30.2544V6.62498C37.5221 2.97203 34.5505 0 30.8971 0C27.2446 0 24.2725 2.97203 24.2725 6.62498V30.2544C21.5359 32.3273 19.9131 35.5736 19.9131 39.016C19.9131 45.0726 24.8405 50 30.8971 50C36.9541 50 41.8815 45.0726 41.8815 39.016C41.8815 35.5736 40.2592 32.3273 37.5221 30.2544ZM30.8971 48.5352C25.6485 48.5352 21.3779 44.265 21.3779 39.016C21.3779 35.9215 22.8916 33.009 25.4265 31.2256C25.6214 31.0883 25.7374 30.8647 25.7374 30.6263V6.62498C25.7374 3.7796 28.0521 1.46484 30.8971 1.46484C33.7425 1.46484 36.0573 3.7796 36.0573 6.62498V30.6263C36.0573 30.8647 36.1732 31.0883 36.3682 31.2256C38.903 33.0093 40.4167 35.9215 40.4167 39.016C40.4167 44.265 36.1462 48.5352 30.8971 48.5352Z" fill="#866E52" fill-opacity="0.5"/>
<path d="M34.1032 31.7058V6.62495C34.1032 4.85684 32.6651 3.4187 30.897 3.4187C29.1292 3.4187 27.6911 4.85684 27.6911 6.62495V25.4352C27.6911 25.84 28.0192 26.1676 28.4235 26.1676C28.8279 26.1676 29.1559 25.84 29.1559 25.4352V11.8801H32.6384V32.196C32.6384 32.502 32.8284 32.7758 33.1148 32.8827C35.5852 33.8028 37.2446 36.1927 37.2446 38.8298C37.2446 42.3301 34.3973 45.1774 30.897 45.1774C27.397 45.1774 24.5493 42.3301 24.5493 38.8298C24.5493 36.1927 26.2091 33.8028 28.6791 32.8827C28.966 32.7755 29.1559 32.502 29.1559 32.196V28.3657C29.1559 27.9613 28.8279 27.6333 28.4235 27.6333C28.0192 27.6333 27.6911 27.9613 27.6911 28.3657V31.7058C24.9159 32.9563 23.0845 35.757 23.0845 38.8298C23.0845 43.1377 26.5894 46.6423 30.897 46.6423C35.2049 46.6423 38.7095 43.1377 38.7095 38.8298C38.7095 35.757 36.8784 32.9567 34.1032 31.7058ZM29.1559 10.4152V6.62495C29.1559 5.66479 29.9372 4.88354 30.8974 4.88354C31.8571 4.88354 32.6384 5.66479 32.6384 6.62495V10.4152H29.1559Z" fill="#866E52" fill-opacity="0.5"/>
<path d="M20.1 15.6416C21.1933 15.7419 21.6651 14.287 20.7225 13.7266C19.5762 13.0453 19.5743 11.3855 20.7225 10.7031C21.6659 10.1419 21.1921 8.68738 20.1 8.78771C18.7709 8.91092 17.7959 7.567 18.3227 6.34172C18.7564 5.3335 17.5178 4.43476 16.6938 5.15802C15.6917 6.03769 14.112 5.52652 13.8179 4.2238C13.5761 3.15302 12.046 3.15416 11.8045 4.2238C11.5108 5.52423 9.93265 6.03884 8.92862 5.15802C8.10426 4.43399 6.86639 5.33388 7.29974 6.34172C7.82732 7.56815 6.85037 8.91054 5.52247 8.78771C4.42956 8.68814 3.9573 10.1423 4.9003 10.7031C6.04814 11.3855 6.04585 13.0457 4.89992 13.7266C3.95769 14.287 4.42918 15.7415 5.52247 15.6416C6.84999 15.5184 7.82732 16.8611 7.29974 18.0876C6.86601 19.0958 8.10464 19.9945 8.92862 19.2713C9.93074 18.3916 11.5104 18.9031 11.8045 20.2055C12.0464 21.2763 13.5764 21.2751 13.8179 20.2055C14.1116 18.905 15.6902 18.3901 16.6938 19.2713C17.5186 19.9949 18.7564 19.095 18.3227 18.0876C17.7963 16.8638 18.7702 15.5187 20.1 15.6416ZM19.1322 14.2683C17.6544 14.6452 16.6183 16.0513 16.7178 17.5913C15.3007 17.0275 13.6363 17.5562 12.8116 18.8608C11.9953 17.5695 10.3374 17.0213 8.90497 17.5913C9.00377 16.0658 7.98334 14.649 6.49065 14.2683C7.46492 13.0949 7.47636 11.3485 6.49065 10.161C7.97533 9.78258 9.00415 8.3719 8.90497 6.83801C10.3252 7.40297 11.9884 6.87082 12.8116 5.56886C13.6302 6.86395 15.2896 7.40602 16.7178 6.83801C16.619 8.36351 17.6395 9.78029 19.1322 10.161C18.1529 11.3405 18.1506 13.0865 19.1322 14.2683Z" fill="#866E52" fill-opacity="0.5"/>
<path d="M12.8113 8.17627C10.5847 8.17627 8.77344 9.98787 8.77344 12.2145C8.77344 14.4411 10.5847 16.2527 12.8113 16.2527C15.0379 16.2527 16.8495 14.4411 16.8495 12.2145C16.8495 9.98787 15.0379 8.17627 12.8113 8.17627ZM12.8113 14.7875C11.3926 14.7875 10.2383 13.6332 10.2383 12.2145C10.2383 10.7954 11.3926 9.64111 12.8113 9.64111C14.2304 9.64111 15.3847 10.7954 15.3847 12.2145C15.3847 13.6332 14.2304 14.7875 12.8113 14.7875Z" fill="#866E52" fill-opacity="0.5"/>
</svg>
