<svg width="47" height="46" viewBox="0 0 47 46" fill="none" xmlns="http://www.w3.org/2000/svg">
<g clip-path="url(#clip0)">
<path d="M5.47098 22.2332C5.47098 22.6568 5.12108 23 4.68926 23C4.25779 23 3.9079 22.6568 3.9079 22.2332C3.9079 21.8099 4.25779 21.4667 4.68926 21.4667C5.12108 21.4667 5.47098 21.8099 5.47098 22.2332Z" fill="#866E52" fill-opacity="0.5"/>
<path d="M8.59714 22.2332C8.59714 22.6568 8.24724 23 7.81542 23C7.38395 23 7.03406 22.6568 7.03406 22.2332C7.03406 21.8099 7.38395 21.4667 7.81542 21.4667C8.24724 21.4667 8.59714 21.8099 8.59714 22.2332Z" fill="#866E52" fill-opacity="0.5"/>
<path d="M14.8495 22.2332C14.8495 22.6568 14.4996 23 14.0681 23C13.6363 23 13.2864 22.6568 13.2864 22.2332C13.2864 21.8099 13.6363 21.4667 14.0681 21.4667C14.4996 21.4667 14.8495 21.8099 14.8495 22.2332Z" fill="#866E52" fill-opacity="0.5"/>
<path d="M17.9757 22.2332C17.9757 22.6568 17.6258 23 17.1943 23C16.7625 23 16.4126 22.6568 16.4126 22.2332C16.4126 21.8099 16.7625 21.4667 17.1943 21.4667C17.6258 21.4667 17.9757 21.8099 17.9757 22.2332Z" fill="#866E52" fill-opacity="0.5"/>
<path d="M16.4125 26.8335H5.47096C4.17656 26.8349 3.12759 27.8635 3.12616 29.1333V36.8002C3.12759 38.0696 4.17656 39.0986 5.47096 39.1H16.4125C17.7069 39.0986 18.7559 38.0696 18.7573 36.8002V29.1333C18.7559 27.8635 17.7069 26.8349 16.4125 26.8335ZM17.1943 36.8002C17.1935 37.2231 16.844 37.5663 16.4125 37.5667H5.47096C5.0395 37.5663 4.68996 37.2231 4.68924 36.8002V29.1333C4.68996 28.71 5.0395 28.3672 5.47096 28.3668H16.4125C16.844 28.3672 17.1935 28.71 17.1943 29.1333V36.8002Z" fill="#866E52" fill-opacity="0.5"/>
<path d="M1.56318 9.19986H20.3205C20.6475 9.20021 20.9402 9.00017 21.0536 8.6994C21.167 8.39828 21.0776 8.05997 20.8293 7.85115L15.6313 3.48074V0.76683C15.6313 0.343231 15.2814 0 14.8496 0H7.03415C6.60233 0 6.25243 0.343231 6.25243 0.76683V3.48074L1.05444 7.85115C0.806148 8.05997 0.716706 8.39828 0.830118 8.6994C0.94353 9.00017 1.23618 9.20021 1.56318 9.19986ZM7.81551 1.53331H14.0682V3.06662H7.81551V1.53331ZM7.32323 4.59993H14.5605L18.2079 7.66655H3.6758L7.32323 4.59993Z" fill="#866E52" fill-opacity="0.5"/>
<path d="M46.1115 0H33.6068C33.175 0 32.8251 0.343231 32.8251 0.76683V19.1665H21.1018C20.8921 19.1669 20.6911 19.2501 20.5448 19.3978C20.2314 19.2476 19.8875 19.1683 19.5387 19.1665H2.3448C1.0504 19.168 0.00143107 20.1969 0 21.4667V43.6999C0.00143107 44.9696 1.0504 45.9986 2.3448 46H19.5387C19.8875 45.9982 20.2314 45.9189 20.5448 45.7687C20.6911 45.9165 20.8921 46 21.1018 46H46.1115C46.5433 46 46.8932 45.6568 46.8932 45.2332V0.76683C46.8932 0.343231 46.5433 0 46.1115 0V0ZM21.8835 20.6999H32.8251V25.3001H28.1359V24.5333C28.1359 24.1101 27.786 23.7668 27.3545 23.7668C26.9227 23.7668 26.5728 24.1101 26.5728 24.5333V25.3001H21.8835V20.6999ZM1.56308 21.4667C1.5638 21.0434 1.91334 20.7006 2.3448 20.6999H19.5387C19.9702 20.7006 20.3197 21.0434 20.3204 21.4667V23.7668H1.56308V21.4667ZM19.5387 44.4667H17.9756V41.4001C17.9756 40.9765 17.6257 40.6332 17.1943 40.6332C16.7624 40.6332 16.4125 40.9765 16.4125 41.4001V44.4667H14.8495V41.4001C14.8495 40.9765 14.4996 40.6332 14.0681 40.6332C13.6363 40.6332 13.2864 40.9765 13.2864 41.4001V44.4667H11.7233V41.4001C11.7233 40.9765 11.3734 40.6332 10.9416 40.6332C10.5101 40.6332 10.1602 40.9765 10.1602 41.4001V44.4667H8.59713V41.4001C8.59713 40.9765 8.24724 40.6332 7.81541 40.6332C7.38395 40.6332 7.03405 40.9765 7.03405 41.4001V44.4667H5.47097V41.4001C5.47097 40.9765 5.12107 40.6332 4.68925 40.6332C4.25778 40.6332 3.90789 40.9765 3.90789 41.4001V44.4667H2.3448C1.91334 44.466 1.5638 44.1231 1.56308 43.6999V25.3001H20.3204V43.6999C20.3197 44.1231 19.9702 44.466 19.5387 44.4667ZM21.8835 43.6999V26.8335H32.8251V44.4667H21.8835V43.6999ZM45.3301 44.4667H34.3882V1.53331H45.3301V44.4667Z" fill="#866E52" fill-opacity="0.5"/>
<path d="M30.4807 32.9667C30.0489 32.9667 29.699 33.3099 29.699 33.7332V35.2668C29.699 35.6901 30.0489 36.0333 30.4807 36.0333C30.9122 36.0333 31.2621 35.6901 31.2621 35.2668V33.7332C31.2621 33.3099 30.9122 32.9667 30.4807 32.9667Z" fill="#866E52" fill-opacity="0.5"/>
<path d="M42.9853 19.1665C42.5538 19.1665 42.2039 19.5097 42.2039 19.9333V21.4666C42.2039 21.8899 42.5538 22.2331 42.9853 22.2331C43.4171 22.2331 43.767 21.8899 43.767 21.4666V19.9333C43.767 19.5097 43.4171 19.1665 42.9853 19.1665Z" fill="#866E52" fill-opacity="0.5"/>
<path d="M36.733 4.59996H42.9854C43.4172 4.59996 43.7671 4.25673 43.7671 3.83348C43.7671 3.40988 43.4172 3.06665 42.9854 3.06665H36.733C36.3016 3.06665 35.9517 3.40988 35.9517 3.83348C35.9517 4.25673 36.3016 4.59996 36.733 4.59996Z" fill="#866E52" fill-opacity="0.5"/>
<path d="M36.733 42.9333H42.9854C43.4172 42.9333 43.7671 42.5901 43.7671 42.1665C43.7671 41.7433 43.4172 41.4 42.9854 41.4H36.733C36.3016 41.4 35.9517 41.7433 35.9517 42.1665C35.9517 42.5901 36.3016 42.9333 36.733 42.9333Z" fill="#866E52" fill-opacity="0.5"/>
<path d="M30.4806 41.4H24.2283C23.7965 41.4 23.4466 41.7433 23.4466 42.1665C23.4466 42.5901 23.7965 42.9333 24.2283 42.9333H30.4806C30.9121 42.9333 31.262 42.5901 31.262 42.1665C31.262 41.7433 30.9121 41.4 30.4806 41.4Z" fill="#866E52" fill-opacity="0.5"/>
<path d="M30.4806 28.3667H24.2283C23.7965 28.3667 23.4466 28.7099 23.4466 29.1332C23.4466 29.5568 23.7965 29.9 24.2283 29.9H30.4806C30.9121 29.9 31.262 29.5568 31.262 29.1332C31.262 28.7099 30.9121 28.3667 30.4806 28.3667Z" fill="#866E52" fill-opacity="0.5"/>
<path d="M7.03404 29.9C6.60222 29.9 6.25232 30.2433 6.25232 30.6665V31.4333C6.25232 31.8566 6.60222 32.1998 7.03404 32.1998C7.46551 32.1998 7.8154 31.8566 7.8154 31.4333V30.6665C7.8154 30.2433 7.46551 29.9 7.03404 29.9Z" fill="#866E52" fill-opacity="0.5"/>
<path d="M7.03404 33.7332C6.60222 33.7332 6.25232 34.0767 6.25232 34.5V35.2668C6.25232 35.6901 6.60222 36.0333 7.03404 36.0333C7.46551 36.0333 7.8154 35.6901 7.8154 35.2668V34.5C7.8154 34.0767 7.46551 33.7332 7.03404 33.7332Z" fill="#866E52" fill-opacity="0.5"/>
</g>
<defs>
<clipPath id="clip0">
<rect width="46.8932" height="46" fill="white"/>
</clipPath>
</defs>
</svg>
