<svg width="60" height="49" viewBox="0 0 60 49" fill="none" xmlns="http://www.w3.org/2000/svg">
<g clip-path="url(#clip0)">
<path d="M53.9871 32.0006V14.7761L30.0215 0L6.01289 14.7761V32.0435H0V48.6667H3.39299V48.366H0.300644V32.3013H59.6994V48.366H56.6929V48.6667H60V32.0006H53.9871ZM9.83536 16.8808L30.0215 4.4672L50.2076 16.8808V32.0006H45.8268V19.0715L30.0215 9.66461L14.2162 19.0715V32.0006H9.83536V16.8808ZM45.4832 32.0006H14.5168V19.2433L30.0215 10.0082L45.5261 19.2433V32.0006H45.4832Z" fill="#866E52"/>
<path d="M6.27057 48.6241V34.8359H13.0995V36.2964H7.81674V40.5917H9.66355C11.2527 40.5917 12.4123 40.9354 13.2283 41.5797C14.0444 42.224 14.4309 43.2119 14.4309 44.4576C14.4309 45.7462 14.0014 46.7771 13.1854 47.5073C12.3694 48.2375 11.2956 48.6241 9.9642 48.6241H6.27057ZM7.81674 42.0092V47.1637H9.57765C10.1789 47.1637 10.6943 47.1207 11.0809 46.9919C11.4674 46.863 11.811 46.6482 12.1117 46.3905C12.3264 46.1757 12.5411 45.8751 12.627 45.5744C12.7559 45.2308 12.7988 44.8442 12.8418 44.4576C12.8418 43.9421 12.7559 43.5126 12.5411 43.169C12.3264 42.8253 12.0687 42.5676 11.7251 42.3529C11.4674 42.224 11.2097 42.1381 10.8661 42.0951C10.5655 42.0522 10.0501 42.0092 9.40586 42.0092H7.81674Z" fill="#866E52"/>
<path d="M27.5304 48.409L25.8984 44.5432H20.0573L18.4252 48.409H16.7502L23.1067 33.9766L29.2913 48.409H27.5304ZM20.6586 43.0828H25.34L23.0208 37.5847L20.6586 43.0828Z" fill="#866E52"/>
<path d="M32.2548 34.8359H36.2062C37.0652 34.8359 37.7523 34.9218 38.2677 35.0937C38.8261 35.2655 39.2556 35.4802 39.6851 35.8239C40.1145 36.2105 40.4152 36.64 40.6299 37.1554C40.8447 37.6709 40.9306 38.2293 40.9306 38.7877C40.9306 39.9904 40.544 40.9354 39.728 41.6226C38.9549 42.3099 37.8812 42.6535 36.5498 42.6535H33.7151V48.6671H32.1689V34.8359H32.2548ZM33.801 36.2964V41.1931H36.5068C37.4087 41.1931 38.1389 40.9783 38.6543 40.5488C39.1697 40.1193 39.4274 39.5179 39.4274 38.7018C39.4274 37.9286 39.1697 37.3273 38.6113 36.9407C38.0959 36.5541 37.3658 36.3393 36.378 36.3393H33.801V36.2964Z" fill="#866E52"/>
<path d="M45.1396 34.8359V40.4199H52.2262V34.8359H53.7723V48.6241H52.2262V41.8804H45.1396V48.6241H43.5934V34.8359H45.1396Z" fill="#866E52"/>
</g>
<defs>
<clipPath id="clip0">
<rect width="60" height="48.6667" fill="white"/>
</clipPath>
</defs>
</svg>
