<svg width="80" height="65" viewBox="0 0 80 65" fill="none" xmlns="http://www.w3.org/2000/svg">
<g clip-path="url(#clip0)">
<path d="M71.9828 42.6675V19.7015L40.0286 0L8.01718 19.7015V42.7247H0V64.8889H4.52398V64.488H0.400859V43.0684H79.5991V64.488H75.5905V64.8889H80V42.6675H71.9828ZM13.1138 22.5078L40.0286 5.95626L66.9435 22.5078V42.6675H61.1024V25.4287L40.0286 12.8861L18.9549 25.4287V42.6675H13.1138V22.5078ZM60.6442 42.6675H19.3558V25.6577L40.0286 13.3443L60.7015 25.6577V42.6675H60.6442Z" fill="#EAEAEA"/>
<path d="M8.36078 64.8316V46.4474H17.466V48.3946H10.4223V54.1218H12.8848C15.0036 54.1218 16.5498 54.58 17.6378 55.4391C18.7258 56.2981 19.2412 57.6154 19.2412 59.2763C19.2412 60.9944 18.6686 62.3689 17.5805 63.3426C16.4925 64.3162 15.0609 64.8316 13.2856 64.8316H8.36078ZM10.4223 56.0118V62.8844H12.7702C13.5719 62.8844 14.2591 62.8271 14.7745 62.6553C15.2899 62.4835 15.748 62.1971 16.1489 61.8535C16.4352 61.5671 16.7216 61.1662 16.8361 60.7653C17.0079 60.3072 17.0651 59.7917 17.1224 59.2763C17.1224 58.589 17.0079 58.0163 16.7216 57.5581C16.4352 57.0999 16.0916 56.7563 15.6335 56.4699C15.2899 56.2981 14.9463 56.1836 14.4882 56.1263C14.0873 56.069 13.4001 56.0118 12.5412 56.0118H10.4223Z" fill="#EAEAEA"/>
<path d="M36.7072 64.5453L34.5311 59.3908H26.743L24.5669 64.5453H22.3336L30.8089 45.302L39.0551 64.5453H36.7072ZM27.5448 57.4436H33.7867L30.6944 50.1128L27.5448 57.4436Z" fill="#EAEAEA"/>
<path d="M43.0064 46.4474H48.2749C49.4202 46.4474 50.3364 46.5619 51.0236 46.791C51.7681 47.0201 52.3407 47.3065 52.9134 47.7646C53.486 48.2801 53.8869 48.8528 54.1732 49.5401C54.4595 50.2273 54.5741 50.9719 54.5741 51.7164C54.5741 53.32 54.0587 54.58 52.9706 55.4963C51.9399 56.4127 50.5082 56.8709 48.733 56.8709H44.9535V64.8889H42.8919V46.4474H43.0064ZM45.068 48.3946V54.9236H48.6757C49.8783 54.9236 50.8518 54.6373 51.539 54.0645C52.2262 53.4918 52.5698 52.69 52.5698 51.6018C52.5698 50.571 52.2262 49.7692 51.4817 49.2537C50.7946 48.7383 49.821 48.4519 48.5039 48.4519H45.068V48.3946Z" fill="#EAEAEA"/>
<path d="M60.1861 46.4474V53.8927H69.635V46.4474H71.6965V64.8316H69.635V55.84H60.1861V64.8316H58.1246V46.4474H60.1861Z" fill="#EAEAEA"/>
</g>
<defs>
<clipPath id="clip0">
<rect width="80" height="64.8889" fill="white"/>
</clipPath>
</defs>
</svg>
