<svg width="50" height="50" viewBox="0 0 50 50" fill="none" xmlns="http://www.w3.org/2000/svg">
<g clip-path="url(#clip0)">
<path d="M4.19157 29.1666C1.89407 29.1666 0.0249023 27.2974 0.0249023 24.9999C0.0249023 22.7024 1.89407 20.8333 4.19157 20.8333C6.48907 20.8333 8.35824 22.7024 8.35824 24.9999C8.35824 27.2974 6.48907 29.1666 4.19157 29.1666ZM4.19157 22.4999C2.81324 22.4999 1.69157 23.6216 1.69157 24.9999C1.69157 26.3782 2.81324 27.4999 4.19157 27.4999C5.5699 27.4999 6.69157 26.3782 6.69157 24.9999C6.69157 23.6216 5.5699 22.4999 4.19157 22.4999Z" fill="#866E52" fill-opacity="0.5"/>
<path d="M45.8586 29.1666C43.5611 29.1666 41.6919 27.2974 41.6919 24.9999C41.6919 22.7024 43.5611 20.8333 45.8586 20.8333C48.1561 20.8333 50.0253 22.7024 50.0253 24.9999C50.0253 27.2974 48.1561 29.1666 45.8586 29.1666ZM45.8586 22.4999C44.4802 22.4999 43.3586 23.6216 43.3586 24.9999C43.3586 26.3782 44.4802 27.4999 45.8586 27.4999C47.2369 27.4999 48.3586 26.3782 48.3586 24.9999C48.3586 23.6216 47.2369 22.4999 45.8586 22.4999Z" fill="#866E52" fill-opacity="0.5"/>
<path d="M25.0251 50.0001C22.7276 50.0001 20.8584 48.1309 20.8584 45.8334C20.8584 43.5359 22.7276 41.6667 25.0251 41.6667C27.3226 41.6667 29.1917 43.5359 29.1917 45.8334C29.1917 48.1309 27.3226 50.0001 25.0251 50.0001ZM25.0251 43.3334C23.6467 43.3334 22.5251 44.4551 22.5251 45.8334C22.5251 47.2117 23.6467 48.3334 25.0251 48.3334C26.4034 48.3334 27.5251 47.2117 27.5251 45.8334C27.5251 44.4551 26.4034 43.3334 25.0251 43.3334Z" fill="#866E52" fill-opacity="0.5"/>
<path d="M25.0251 8.33333C22.7276 8.33333 20.8584 6.46417 20.8584 4.16667C20.8584 1.86917 22.7276 0 25.0251 0C27.3226 0 29.1917 1.86917 29.1917 4.16667C29.1917 6.46417 27.3226 8.33333 25.0251 8.33333ZM25.0251 1.66667C23.6467 1.66667 22.5251 2.78833 22.5251 4.16667C22.5251 5.545 23.6467 6.66667 25.0251 6.66667C26.4034 6.66667 27.5251 5.545 27.5251 4.16667C27.5251 2.78833 26.4034 1.66667 25.0251 1.66667Z" fill="#866E52" fill-opacity="0.5"/>
<path d="M45.5927 22.5268C45.191 22.5268 44.836 22.2343 44.771 21.8243C44.5177 20.2409 44.0743 18.6909 43.4518 17.2193C43.2727 16.7951 43.4702 16.3059 43.8943 16.1267C44.3193 15.9467 44.8077 16.1451 44.9868 16.5692C45.6618 18.1651 46.1435 19.8451 46.4168 21.5618C46.4893 22.0159 46.1802 22.4434 45.7252 22.5159C45.681 22.5234 45.6368 22.5268 45.5927 22.5268Z" fill="#866E52" fill-opacity="0.5"/>
<path d="M41.5209 13.1105C41.2717 13.1105 41.0251 12.9988 40.8609 12.7863C39.8126 11.4288 38.5917 10.208 37.2317 9.15802C36.8676 8.87718 36.8001 8.35385 37.0817 7.98968C37.3634 7.62552 37.8867 7.55885 38.2509 7.83968C39.7234 8.97635 41.0451 10.298 42.1801 11.768C42.4609 12.133 42.3942 12.6555 42.0301 12.9363C41.8776 13.0538 41.6992 13.1105 41.5209 13.1105Z" fill="#866E52" fill-opacity="0.5"/>
<path d="M33.1302 6.63954C33.0219 6.63954 32.9119 6.61871 32.8061 6.57371C31.3344 5.9512 29.7844 5.50704 28.2002 5.2537C27.7461 5.1812 27.4361 4.7537 27.5086 4.2987C27.5811 3.84453 28.0094 3.5337 28.4627 3.60787C30.1802 3.88203 31.8594 4.3637 33.4552 5.0387C33.8794 5.21787 34.0777 5.70704 33.8977 6.1312C33.7635 6.4487 33.4552 6.63954 33.1302 6.63954Z" fill="#866E52" fill-opacity="0.5"/>
<path d="M28.3307 46.4034C27.9282 46.4034 27.5741 46.1109 27.5091 45.7017C27.4366 45.2467 27.7457 44.8192 28.2007 44.7467C29.7849 44.4934 31.3349 44.0492 32.8066 43.4267C33.2316 43.2484 33.7199 43.4442 33.8991 43.8692C34.0783 44.2934 33.8808 44.7825 33.4566 44.9617C31.8607 45.6367 30.1816 46.1184 28.4641 46.3925C28.4182 46.4 28.3741 46.4034 28.3307 46.4034Z" fill="#866E52" fill-opacity="0.5"/>
<path d="M37.7477 42.3289C37.4986 42.3289 37.2519 42.2173 37.0877 42.0048C36.8069 41.6398 36.8736 41.1173 37.2377 40.8364C38.5961 39.7873 39.8169 38.5656 40.8661 37.2064C41.1461 36.8414 41.6694 36.7756 42.0344 37.0556C42.3994 37.3372 42.4661 37.8606 42.1853 38.2248C41.0494 39.6973 39.7277 41.0198 38.2569 42.1548C38.1052 42.2723 37.9261 42.3289 37.7477 42.3289Z" fill="#866E52" fill-opacity="0.5"/>
<path d="M44.2184 33.9394C44.11 33.9394 44 33.9185 43.8942 33.8735C43.47 33.6944 43.2717 33.2052 43.4517 32.781C44.0742 31.3085 44.5184 29.7593 44.7709 28.176C44.8425 27.721 45.2717 27.4102 45.725 27.4843C46.1792 27.5568 46.4892 27.9843 46.4167 28.4385C46.1426 30.156 45.6617 31.8352 44.9867 33.431C44.8525 33.7485 44.5434 33.9394 44.2184 33.9394Z" fill="#866E52" fill-opacity="0.5"/>
<path d="M5.8306 33.9394C5.5056 33.9394 5.19726 33.7485 5.0631 33.431C4.3881 31.8352 3.90643 30.1552 3.6331 28.4385C3.5606 27.9843 3.86977 27.5568 4.32477 27.4843C4.77476 27.4102 5.20726 27.721 5.27893 28.176C5.53226 29.7593 5.9756 31.3093 6.5981 32.781C6.77726 33.2052 6.57976 33.6944 6.1556 33.8735C6.04893 33.9177 5.93893 33.9394 5.8306 33.9394Z" fill="#866E52" fill-opacity="0.5"/>
<path d="M12.3083 42.3338C12.13 42.3338 11.9508 42.2771 11.7991 42.1596C10.3266 41.023 9.00496 39.7013 7.86996 38.2313C7.58912 37.8663 7.65579 37.3438 8.01996 37.0629C8.38413 36.7813 8.90663 36.8479 9.18913 37.2129C10.2375 38.5704 11.4583 39.7913 12.8183 40.8413C13.1825 41.1221 13.25 41.6455 12.9683 42.0096C12.8041 42.2221 12.5575 42.3338 12.3083 42.3338Z" fill="#866E52" fill-opacity="0.5"/>
<path d="M21.7194 46.4034C21.6761 46.4034 21.6319 46.4 21.5869 46.3925C19.8694 46.1184 18.1902 45.6367 16.5944 44.9617C16.1702 44.7825 15.9719 44.2934 16.1519 43.8692C16.3311 43.4442 16.8194 43.2484 17.2444 43.4267C18.7161 44.0492 20.2661 44.4934 21.8502 44.7467C22.3044 44.8192 22.6144 45.2467 22.5419 45.7017C22.4761 46.1109 22.1219 46.4034 21.7194 46.4034Z" fill="#866E52" fill-opacity="0.5"/>
<path d="M16.92 6.63903C16.595 6.63903 16.2867 6.44819 16.1525 6.13069C15.9734 5.70653 16.1709 5.21736 16.595 5.03819C18.1909 4.36319 19.87 3.88152 21.5875 3.60736C22.0417 3.53319 22.4692 3.84486 22.5417 4.29819C22.6142 4.75319 22.305 5.18069 21.85 5.25319C20.2658 5.50653 18.7159 5.95069 17.2442 6.57319C17.1375 6.61736 17.0284 6.63903 16.92 6.63903Z" fill="#866E52" fill-opacity="0.5"/>
<path d="M8.52418 13.1176C8.34668 13.1176 8.16751 13.0609 8.01585 12.9442C7.65085 12.6626 7.58418 12.1392 7.86501 11.7751C9.00085 10.3026 10.3225 8.98007 11.7933 7.84507C12.1575 7.56423 12.68 7.63006 12.9625 7.99507C13.2433 8.36007 13.1767 8.88257 12.8125 9.1634C11.4542 10.2126 10.2333 11.4342 9.18418 12.7934C9.02001 13.0059 8.77335 13.1176 8.52418 13.1176Z" fill="#866E52" fill-opacity="0.5"/>
<path d="M4.45675 22.5268C4.41259 22.5268 4.36925 22.5234 4.32425 22.5159C3.87009 22.4434 3.56009 22.0159 3.63259 21.5618C3.90676 19.8443 4.38759 18.1651 5.06259 16.5692C5.24175 16.1451 5.73009 15.9467 6.15509 16.1267C6.57925 16.3059 6.77758 16.7951 6.59758 17.2193C5.97509 18.6918 5.53092 20.2409 5.27842 21.8243C5.21342 22.2351 4.85925 22.5268 4.45675 22.5268Z" fill="#866E52" fill-opacity="0.5"/>
<path d="M18.3584 28.3337C18.2309 28.3337 18.1034 28.3046 17.9859 28.2463L11.3192 24.9129C11.0367 24.7712 10.8584 24.4829 10.8584 24.1671V17.5004C10.8584 17.2112 11.0084 16.9437 11.2534 16.7912C11.4992 16.6379 11.8067 16.6262 12.0642 16.7546L18.7309 20.0879C19.0134 20.2296 19.1917 20.5179 19.1917 20.8337V27.5004C19.1917 27.7896 19.0417 28.0571 18.7967 28.2096C18.6626 28.2921 18.5101 28.3337 18.3584 28.3337ZM12.5251 23.6521L17.5251 26.1521V21.3487L12.5251 18.8487V23.6521Z" fill="#866E52" fill-opacity="0.5"/>
<path d="M18.3582 28.3337C18.2057 28.3337 18.0541 28.2921 17.9199 28.2096C17.6749 28.0571 17.5249 27.7896 17.5249 27.5004V20.8337C17.5249 20.5179 17.7032 20.2296 17.9857 20.0879L24.6524 16.7546C24.9107 16.6262 25.2174 16.6379 25.4632 16.7912C25.7082 16.9437 25.8582 17.2112 25.8582 17.5004V24.1671C25.8582 24.4829 25.6799 24.7712 25.3974 24.9129L18.7307 28.2463C18.6132 28.3046 18.4857 28.3337 18.3582 28.3337ZM19.1916 21.3487V26.1521L24.1916 23.6521V18.8487L19.1916 21.3487Z" fill="#866E52" fill-opacity="0.5"/>
<path d="M18.3584 21.6667C18.2309 21.6667 18.1026 21.6375 17.9859 21.5792L11.3192 18.2459C11.0367 18.1042 10.8584 17.8159 10.8584 17.5C10.8584 17.1842 11.0367 16.8959 11.3192 16.7542L17.9859 13.4209C18.2201 13.3034 18.4967 13.3034 18.7317 13.4209L25.3984 16.7542C25.6809 16.8959 25.8593 17.1842 25.8593 17.5C25.8593 17.8159 25.6809 18.1042 25.3984 18.2459L18.7317 21.5792C18.6134 21.6375 18.4859 21.6667 18.3584 21.6667ZM13.5551 17.5L18.3584 19.9017L23.1618 17.5L18.3584 15.0984L13.5551 17.5Z" fill="#866E52" fill-opacity="0.5"/>
<path d="M31.6919 28.3337C31.5644 28.3337 31.4369 28.3046 31.3194 28.2463L24.6527 24.9129C24.3702 24.7712 24.1919 24.4829 24.1919 24.1671V17.5004C24.1919 17.2112 24.3419 16.9437 24.5869 16.7912C24.8327 16.6379 25.1402 16.6262 25.3977 16.7546L32.0644 20.0879C32.3469 20.2296 32.5252 20.5179 32.5252 20.8337V27.5004C32.5252 27.7896 32.3752 28.0571 32.1302 28.2096C31.9961 28.2921 31.8436 28.3337 31.6919 28.3337ZM25.8586 23.6521L30.8586 26.1521V21.3487L25.8586 18.8487V23.6521Z" fill="#866E52" fill-opacity="0.5"/>
<path d="M31.6917 28.3337C31.5392 28.3337 31.3876 28.2921 31.2534 28.2096C31.0084 28.0571 30.8584 27.7896 30.8584 27.5004V20.8337C30.8584 20.5179 31.0367 20.2296 31.3192 20.0879L37.9859 16.7546C38.2442 16.6262 38.5509 16.6379 38.7967 16.7912C39.0417 16.9437 39.1917 17.2112 39.1917 17.5004V24.1671C39.1917 24.4829 39.0134 24.7712 38.7309 24.9129L32.0642 28.2463C31.9467 28.3046 31.8192 28.3337 31.6917 28.3337ZM32.5251 21.3487V26.1521L37.5251 23.6521V18.8487L32.5251 21.3487Z" fill="#866E52" fill-opacity="0.5"/>
<path d="M31.6919 21.6667C31.5644 21.6667 31.4361 21.6375 31.3194 21.5792L24.6527 18.2459C24.3702 18.1042 24.1919 17.8159 24.1919 17.5C24.1919 17.1842 24.3702 16.8959 24.6527 16.7542L31.3194 13.4209C31.5536 13.3034 31.8302 13.3034 32.0652 13.4209L38.7319 16.7542C39.0144 16.8959 39.1927 17.1842 39.1927 17.5C39.1927 17.8159 39.0144 18.1042 38.7319 18.2459L32.0652 21.5792C31.9469 21.6375 31.8194 21.6667 31.6919 21.6667ZM26.8886 17.5L31.6919 19.9017L36.4952 17.5L31.6919 15.0984L26.8886 17.5Z" fill="#866E52" fill-opacity="0.5"/>
<path d="M25.0249 38.333C24.8974 38.333 24.7699 38.3039 24.6524 38.2455L17.9857 34.9122C17.7032 34.7705 17.5249 34.4822 17.5249 34.1663V27.4997C17.5249 27.2105 17.6749 26.943 17.9199 26.7905C18.1657 26.6372 18.4724 26.6255 18.7307 26.7538L25.3974 30.0872C25.6799 30.2288 25.8582 30.5172 25.8582 30.833V37.4997C25.8582 37.7889 25.7082 38.0564 25.4632 38.2089C25.3291 38.2914 25.1766 38.333 25.0249 38.333ZM19.1916 33.6513L24.1916 36.1513V31.348L19.1916 28.848V33.6513Z" fill="#866E52" fill-opacity="0.5"/>
<path d="M25.0252 38.333C24.8727 38.333 24.7211 38.2914 24.5869 38.2089C24.3419 38.0564 24.1919 37.7889 24.1919 37.4997V30.833C24.1919 30.5172 24.3702 30.2288 24.6527 30.0872L31.3194 26.7538C31.5777 26.6255 31.8844 26.6372 32.1302 26.7905C32.3752 26.943 32.5252 27.2105 32.5252 27.4997V34.1663C32.5252 34.4822 32.3469 34.7705 32.0644 34.9122L25.3977 38.2455C25.2802 38.3039 25.1527 38.333 25.0252 38.333ZM25.8586 31.348V36.1513L30.8586 33.6513V28.848L25.8586 31.348Z" fill="#866E52" fill-opacity="0.5"/>
<path d="M25.0249 31.6672C24.8974 31.6672 24.7691 31.638 24.6524 31.5797L17.9857 28.2464C17.7032 28.1047 17.5249 27.8164 17.5249 27.5005C17.5249 27.1847 17.7032 26.8964 17.9857 26.7547L24.6524 23.4214C24.8866 23.3039 25.1632 23.3039 25.3982 23.4214L32.0649 26.7547C32.3474 26.8964 32.5257 27.1847 32.5257 27.5005C32.5257 27.8164 32.3474 28.1047 32.0649 28.2464L25.3982 31.5797C25.2799 31.638 25.1524 31.6672 25.0249 31.6672ZM20.2216 27.5005L25.0249 29.9022L29.8282 27.5005L25.0249 25.0989L20.2216 27.5005Z" fill="#866E52" fill-opacity="0.5"/>
</g>
<defs>
<clipPath id="clip0">
<rect width="50" height="50" fill="white"/>
</clipPath>
</defs>
</svg>
