<svg width="50" height="50" viewBox="0 0 50 50" fill="none" xmlns="http://www.w3.org/2000/svg">
<g clip-path="url(#clip0)">
<path d="M4.19166 29.1663C1.89416 29.1663 0.0249939 27.2972 0.0249939 24.9997C0.0249939 22.7022 1.89416 20.833 4.19166 20.833C6.48916 20.833 8.35833 22.7022 8.35833 24.9997C8.35833 27.2972 6.48916 29.1663 4.19166 29.1663ZM4.19166 22.4997C2.81333 22.4997 1.69166 23.6213 1.69166 24.9997C1.69166 26.378 2.81333 27.4997 4.19166 27.4997C5.56999 27.4997 6.69166 26.378 6.69166 24.9997C6.69166 23.6213 5.56999 22.4997 4.19166 22.4997Z" fill="#EAEAEA"/>
<path d="M45.8583 29.1663C43.5608 29.1663 41.6917 27.2972 41.6917 24.9997C41.6917 22.7022 43.5608 20.833 45.8583 20.833C48.1558 20.833 50.025 22.7022 50.025 24.9997C50.025 27.2972 48.1558 29.1663 45.8583 29.1663ZM45.8583 22.4997C44.48 22.4997 43.3583 23.6213 43.3583 24.9997C43.3583 26.378 44.48 27.4997 45.8583 27.4997C47.2367 27.4997 48.3583 26.378 48.3583 24.9997C48.3583 23.6213 47.2367 22.4997 45.8583 22.4997Z" fill="#EAEAEA"/>
<path d="M25.025 50.0003C22.7275 50.0003 20.8583 48.1311 20.8583 45.8337C20.8583 43.5362 22.7275 41.667 25.025 41.667C27.3225 41.667 29.1916 43.5362 29.1916 45.8337C29.1916 48.1311 27.3225 50.0003 25.025 50.0003ZM25.025 43.3337C23.6466 43.3337 22.525 44.4553 22.525 45.8337C22.525 47.212 23.6466 48.3336 25.025 48.3336C26.4033 48.3336 27.525 47.212 27.525 45.8337C27.525 44.4553 26.4033 43.3337 25.025 43.3337Z" fill="#EAEAEA"/>
<path d="M25.025 8.33333C22.7275 8.33333 20.8583 6.46417 20.8583 4.16667C20.8583 1.86917 22.7275 0 25.025 0C27.3225 0 29.1916 1.86917 29.1916 4.16667C29.1916 6.46417 27.3225 8.33333 25.025 8.33333ZM25.025 1.66667C23.6466 1.66667 22.525 2.78833 22.525 4.16667C22.525 5.545 23.6466 6.66667 25.025 6.66667C26.4033 6.66667 27.525 5.545 27.525 4.16667C27.525 2.78833 26.4033 1.66667 25.025 1.66667Z" fill="#EAEAEA"/>
<path d="M45.5925 22.527C45.1908 22.527 44.8358 22.2345 44.7708 21.8245C44.5175 20.2412 44.0741 18.6912 43.4516 17.2195C43.2725 16.7953 43.47 16.3062 43.8941 16.127C44.3191 15.947 44.8075 16.1453 44.9866 16.5695C45.6616 18.1653 46.1433 19.8453 46.4166 21.562C46.4891 22.0162 46.18 22.4437 45.725 22.5162C45.6808 22.5237 45.6366 22.527 45.5925 22.527Z" fill="#EAEAEA"/>
<path d="M41.5208 13.1105C41.2716 13.1105 41.0249 12.9988 40.8608 12.7863C39.8124 11.4288 38.5916 10.208 37.2316 9.15802C36.8674 8.87718 36.7999 8.35385 37.0816 7.98968C37.3633 7.62552 37.8866 7.55885 38.2508 7.83968C39.7233 8.97635 41.0449 10.298 42.1799 11.768C42.4608 12.133 42.3941 12.6555 42.0299 12.9363C41.8774 13.0538 41.6991 13.1105 41.5208 13.1105Z" fill="#EAEAEA"/>
<path d="M33.13 6.63929C33.0216 6.63929 32.9116 6.61846 32.8058 6.57346C31.3341 5.95096 29.7842 5.50679 28.2 5.25346C27.7458 5.18096 27.4358 4.75346 27.5083 4.29846C27.5808 3.84429 28.0092 3.53345 28.4625 3.60762C30.18 3.88179 31.8591 4.36346 33.455 5.03846C33.8791 5.21762 34.0775 5.70679 33.8975 6.13096C33.7633 6.44846 33.455 6.63929 33.13 6.63929Z" fill="#EAEAEA"/>
<path d="M28.3308 46.4034C27.9283 46.4034 27.5742 46.1109 27.5092 45.7017C27.4367 45.2467 27.7458 44.8192 28.2008 44.7467C29.785 44.4934 31.335 44.0492 32.8067 43.4267C33.2317 43.2484 33.72 43.4442 33.8992 43.8692C34.0783 44.2934 33.8808 44.7825 33.4567 44.9617C31.8608 45.6367 30.1817 46.1184 28.4642 46.3925C28.4183 46.4 28.3742 46.4034 28.3308 46.4034Z" fill="#EAEAEA"/>
<path d="M37.7475 42.3289C37.4983 42.3289 37.2517 42.2173 37.0875 42.0048C36.8067 41.6398 36.8733 41.1173 37.2375 40.8364C38.5958 39.7873 39.8167 38.5656 40.8658 37.2064C41.1458 36.8414 41.6692 36.7756 42.0342 37.0556C42.3992 37.3372 42.4658 37.8606 42.185 38.2248C41.0492 39.6973 39.7275 41.0198 38.2567 42.1548C38.105 42.2723 37.9258 42.3289 37.7475 42.3289Z" fill="#EAEAEA"/>
<path d="M44.2183 33.9391C44.11 33.9391 44 33.9183 43.8942 33.8733C43.47 33.6941 43.2717 33.2049 43.4517 32.7808C44.0742 31.3083 44.5183 29.7591 44.7708 28.1758C44.8425 27.7208 45.2717 27.4099 45.725 27.4841C46.1792 27.5566 46.4892 27.9841 46.4167 28.4383C46.1425 30.1558 45.6617 31.8349 44.9867 33.4308C44.8525 33.7483 44.5433 33.9391 44.2183 33.9391Z" fill="#EAEAEA"/>
<path d="M5.83084 33.9391C5.50584 33.9391 5.19751 33.7483 5.06334 33.4308C4.38834 31.8349 3.90668 30.1549 3.63334 28.4383C3.56084 27.9841 3.87001 27.5566 4.32501 27.4841C4.77501 27.4099 5.20751 27.7208 5.27918 28.1758C5.53251 29.7591 5.97584 31.3091 6.59834 32.7808C6.77751 33.2049 6.58001 33.6941 6.15584 33.8733C6.04917 33.9174 5.93917 33.9391 5.83084 33.9391Z" fill="#EAEAEA"/>
<path d="M12.3083 42.3338C12.13 42.3338 11.9508 42.2771 11.7992 42.1596C10.3267 41.023 9.00499 39.7013 7.86999 38.2313C7.58916 37.8663 7.65582 37.3438 8.01999 37.0629C8.38416 36.7813 8.90666 36.8479 9.18916 37.2129C10.2375 38.5704 11.4583 39.7913 12.8183 40.8413C13.1825 41.1221 13.25 41.6455 12.9683 42.0096C12.8042 42.2221 12.5575 42.3338 12.3083 42.3338Z" fill="#EAEAEA"/>
<path d="M21.7192 46.4034C21.6758 46.4034 21.6317 46.4 21.5867 46.3925C19.8692 46.1184 18.19 45.6367 16.5942 44.9617C16.17 44.7825 15.9717 44.2934 16.1517 43.8692C16.3308 43.4442 16.8192 43.2484 17.2442 43.4267C18.7158 44.0492 20.2658 44.4934 21.85 44.7467C22.3042 44.8192 22.6142 45.2467 22.5417 45.7017C22.4758 46.1109 22.1217 46.4034 21.7192 46.4034Z" fill="#EAEAEA"/>
<path d="M16.92 6.63878C16.595 6.63878 16.2866 6.44795 16.1525 6.13045C15.9733 5.70628 16.1708 5.21711 16.595 5.03795C18.1908 4.36295 19.87 3.88128 21.5875 3.60711C22.0416 3.53294 22.4691 3.84461 22.5416 4.29795C22.6141 4.75295 22.305 5.18045 21.85 5.25295C20.2658 5.50628 18.7158 5.95045 17.2441 6.57295C17.1375 6.61712 17.0283 6.63878 16.92 6.63878Z" fill="#EAEAEA"/>
<path d="M8.52418 13.1173C8.34668 13.1173 8.16751 13.0607 8.01585 12.944C7.65085 12.6623 7.58418 12.139 7.86501 11.7748C9.00085 10.3023 10.3225 8.97982 11.7933 7.84482C12.1575 7.56399 12.68 7.62982 12.9625 7.99482C13.2433 8.35982 13.1767 8.88232 12.8125 9.16316C11.4542 10.2123 10.2333 11.434 9.18418 12.7932C9.02001 13.0057 8.77335 13.1173 8.52418 13.1173Z" fill="#EAEAEA"/>
<path d="M4.45666 22.527C4.4125 22.527 4.36916 22.5237 4.32416 22.5162C3.87 22.4437 3.56 22.0162 3.6325 21.562C3.90666 19.8445 4.3875 18.1653 5.06249 16.5695C5.24166 16.1453 5.72999 15.947 6.15499 16.127C6.57916 16.3062 6.77749 16.7953 6.59749 17.2195C5.97499 18.692 5.53083 20.2412 5.27833 21.8245C5.21333 22.2353 4.85916 22.527 4.45666 22.527Z" fill="#EAEAEA"/>
<path d="M18.3583 28.3337C18.2308 28.3337 18.1033 28.3046 17.9858 28.2463L11.3192 24.9129C11.0367 24.7712 10.8583 24.4829 10.8583 24.1671V17.5004C10.8583 17.2112 11.0083 16.9437 11.2533 16.7912C11.4992 16.6379 11.8067 16.6262 12.0642 16.7546L18.7308 20.0879C19.0133 20.2296 19.1917 20.5179 19.1917 20.8337V27.5004C19.1917 27.7896 19.0417 28.0571 18.7967 28.2096C18.6625 28.2921 18.51 28.3337 18.3583 28.3337ZM12.525 23.6521L17.525 26.1521V21.3487L12.525 18.8487V23.6521Z" fill="#EAEAEA"/>
<path d="M18.3584 28.3337C18.2059 28.3337 18.0542 28.2921 17.92 28.2096C17.675 28.0571 17.525 27.7896 17.525 27.5004V20.8337C17.525 20.5179 17.7034 20.2296 17.9859 20.0879L24.6525 16.7546C24.9108 16.6262 25.2175 16.6379 25.4633 16.7912C25.7083 16.9437 25.8583 17.2112 25.8583 17.5004V24.1671C25.8583 24.4829 25.68 24.7712 25.3975 24.9129L18.7309 28.2463C18.6134 28.3046 18.4859 28.3337 18.3584 28.3337ZM19.1917 21.3487V26.1521L24.1917 23.6521V18.8487L19.1917 21.3487Z" fill="#EAEAEA"/>
<path d="M18.3584 21.6665C18.2309 21.6665 18.1025 21.6373 17.9859 21.579L11.3192 18.2456C11.0367 18.104 10.8583 17.8156 10.8583 17.4998C10.8583 17.184 11.0367 16.8956 11.3192 16.754L17.9859 13.4206C18.22 13.3031 18.4967 13.3031 18.7317 13.4206L25.3984 16.754C25.6809 16.8956 25.8592 17.184 25.8592 17.4998C25.8592 17.8156 25.6809 18.104 25.3984 18.2456L18.7317 21.579C18.6134 21.6373 18.4859 21.6665 18.3584 21.6665ZM13.555 17.4998L18.3584 19.9015L23.1617 17.4998L18.3584 15.0981L13.555 17.4998Z" fill="#EAEAEA"/>
<path d="M31.6917 28.3337C31.5642 28.3337 31.4367 28.3046 31.3192 28.2463L24.6525 24.9129C24.37 24.7712 24.1917 24.4829 24.1917 24.1671V17.5004C24.1917 17.2112 24.3417 16.9437 24.5867 16.7912C24.8325 16.6379 25.14 16.6262 25.3975 16.7546L32.0642 20.0879C32.3467 20.2296 32.525 20.5179 32.525 20.8337V27.5004C32.525 27.7896 32.375 28.0571 32.13 28.2096C31.9959 28.2921 31.8434 28.3337 31.6917 28.3337ZM25.8583 23.6521L30.8584 26.1521V21.3487L25.8583 18.8487V23.6521Z" fill="#EAEAEA"/>
<path d="M31.6917 28.3337C31.5392 28.3337 31.3875 28.2921 31.2533 28.2096C31.0083 28.0571 30.8583 27.7896 30.8583 27.5004V20.8337C30.8583 20.5179 31.0367 20.2296 31.3192 20.0879L37.9858 16.7546C38.2442 16.6262 38.5508 16.6379 38.7967 16.7912C39.0417 16.9437 39.1917 17.2112 39.1917 17.5004V24.1671C39.1917 24.4829 39.0133 24.7712 38.7308 24.9129L32.0642 28.2463C31.9467 28.3046 31.8192 28.3337 31.6917 28.3337ZM32.525 21.3487V26.1521L37.525 23.6521V18.8487L32.525 21.3487Z" fill="#EAEAEA"/>
<path d="M31.6917 21.6665C31.5642 21.6665 31.4359 21.6373 31.3192 21.579L24.6525 18.2456C24.37 18.104 24.1917 17.8156 24.1917 17.4998C24.1917 17.184 24.37 16.8956 24.6525 16.754L31.3192 13.4206C31.5533 13.3031 31.83 13.3031 32.065 13.4206L38.7317 16.754C39.0142 16.8956 39.1925 17.184 39.1925 17.4998C39.1925 17.8156 39.0142 18.104 38.7317 18.2456L32.065 21.579C31.9467 21.6373 31.8192 21.6665 31.6917 21.6665ZM26.8883 17.4998L31.6917 19.9015L36.495 17.4998L31.6917 15.0981L26.8883 17.4998Z" fill="#EAEAEA"/>
<path d="M25.025 38.3328C24.8975 38.3328 24.77 38.3036 24.6525 38.2453L17.9859 34.9119C17.7034 34.7703 17.525 34.4819 17.525 34.1661V27.4994C17.525 27.2103 17.675 26.9428 17.92 26.7903C18.1659 26.6369 18.4725 26.6253 18.7309 26.7536L25.3975 30.0869C25.68 30.2286 25.8583 30.5169 25.8583 30.8328V37.4994C25.8583 37.7886 25.7083 38.0561 25.4633 38.2086C25.3292 38.2911 25.1767 38.3328 25.025 38.3328ZM19.1917 33.6511L24.1917 36.1511V31.3478L19.1917 28.8478V33.6511Z" fill="#EAEAEA"/>
<path d="M25.025 38.3328C24.8725 38.3328 24.7208 38.2911 24.5867 38.2086C24.3417 38.0561 24.1917 37.7886 24.1917 37.4994V30.8328C24.1917 30.5169 24.37 30.2286 24.6525 30.0869L31.3192 26.7536C31.5775 26.6253 31.8842 26.6369 32.13 26.7903C32.375 26.9428 32.525 27.2103 32.525 27.4994V34.1661C32.525 34.4819 32.3467 34.7703 32.0642 34.9119L25.3975 38.2453C25.28 38.3036 25.1525 38.3328 25.025 38.3328ZM25.8583 31.3478V36.1511L30.8584 33.6511V28.8478L25.8583 31.3478Z" fill="#EAEAEA"/>
<path d="M25.025 31.667C24.8975 31.667 24.7692 31.6378 24.6525 31.5795L17.9859 28.2461C17.7034 28.1045 17.525 27.8161 17.525 27.5003C17.525 27.1845 17.7034 26.8961 17.9859 26.7545L24.6525 23.4211C24.8867 23.3036 25.1634 23.3036 25.3984 23.4211L32.065 26.7545C32.3475 26.8961 32.5259 27.1845 32.5259 27.5003C32.5259 27.8161 32.3475 28.1045 32.065 28.2461L25.3984 31.5795C25.28 31.6378 25.1525 31.667 25.025 31.667ZM20.2217 27.5003L25.025 29.902L29.8284 27.5003L25.025 25.0986L20.2217 27.5003Z" fill="#EAEAEA"/>
</g>
<defs>
<clipPath id="clip0">
<rect width="50" height="50" fill="white"/>
</clipPath>
</defs>
</svg>
