<svg width="100" height="100" viewBox="0 0 100 100" fill="none" xmlns="http://www.w3.org/2000/svg">
<mask id="path-1-inside-1" fill="white">
<path fill-rule="evenodd" clip-rule="evenodd" d="M50 0C22.3858 0 0 22.3858 0 50C0 77.6142 22.3858 100 50 100C77.6142 100 100 77.6142 100 50C100 22.3858 77.6142 0 50 0ZM39 70.7846L73.5 50.866C74.1667 50.4811 74.1667 49.5189 73.5 49.134L39 29.2154C38.3333 28.8305 37.5 29.3116 37.5 30.0814L37.5 69.9186C37.5 70.6884 38.3333 71.1695 39 70.7846Z"/>
</mask>
<path fill-rule="evenodd" clip-rule="evenodd" d="M50 0C22.3858 0 0 22.3858 0 50C0 77.6142 22.3858 100 50 100C77.6142 100 100 77.6142 100 50C100 22.3858 77.6142 0 50 0ZM39 70.7846L73.5 50.866C74.1667 50.4811 74.1667 49.5189 73.5 49.134L39 29.2154C38.3333 28.8305 37.5 29.3116 37.5 30.0814L37.5 69.9186C37.5 70.6884 38.3333 71.1695 39 70.7846Z" fill="#EAEAEA"/>
<path d="M73.5 50.866L75 53.4641L73.5 50.866ZM39 70.7846L37.5 68.1865H37.5L39 70.7846ZM73.5 49.134L75 46.5359L73.5 49.134ZM39 29.2154L37.5 31.8135L39 29.2154ZM37.5 30.0814H40.5H37.5ZM37.5 69.9186H34.5H37.5ZM3 50C3 24.0426 24.0426 3 50 3V-3C20.7289 -3 -3 20.7289 -3 50H3ZM50 97C24.0426 97 3 75.9574 3 50H-3C-3 79.2711 20.7289 103 50 103V97ZM97 50C97 75.9574 75.9574 97 50 97V103C79.2711 103 103 79.2711 103 50H97ZM50 3C75.9574 3 97 24.0426 97 50H103C103 20.7289 79.2711 -3 50 -3V3ZM72 48.2679L37.5 68.1865L40.5 73.3827L75 53.4641L72 48.2679ZM72 51.7321C70.6667 50.9622 70.6667 49.0378 72 48.2679L75 53.4641C77.6667 51.9245 77.6667 48.0755 75 46.5359L72 51.7321ZM37.5 31.8135L72 51.7321L75 46.5359L40.5 26.6173L37.5 31.8135ZM40.5 30.0814C40.5 31.621 38.8333 32.5833 37.5 31.8135L40.5 26.6173C37.8333 25.0777 34.5 27.0022 34.5 30.0814H40.5ZM40.5 69.9186L40.5 30.0814H34.5L34.5 69.9186H40.5ZM37.5 68.1865C38.8333 67.4167 40.5 68.379 40.5 69.9186H34.5C34.5 72.9978 37.8333 74.9223 40.5 73.3827L37.5 68.1865Z" fill="#EAEAEA" mask="url(#path-1-inside-1)"/>
</svg>
