<svg width="46" height="46" viewBox="0 0 46 46" fill="none" xmlns="http://www.w3.org/2000/svg">
<path d="M45.2812 2.15625V0.71875H23C22.6025 0.71875 22.2812 1.04003 22.2812 1.4375V7.1875C22.2812 7.58497 22.6025 7.90625 23 7.90625H23.7188V43.8438H0.71875V45.2812H24.4375H27.3125H33.0625H35.9375H45.2812V43.8438H36.6562V40.25H45.2812V38.8125H35.9375H33.0625H30.9062V37.375H45.2812V35.9375H30.1875C29.79 35.9375 29.4688 36.2588 29.4688 36.6562V39.5312C29.4688 39.9287 29.79 40.25 30.1875 40.25H32.3438V43.8438H28.0312V7.90625H45.2812V6.46875H27.3125H24.4375H23.7188V2.15625H45.2812ZM33.7812 40.25H35.2188V43.8438H33.7812V40.25ZM26.5938 7.90625V43.8438H25.1562V7.90625H26.5938Z" fill="#866E52" fill-opacity="0.5"/>
<path d="M15.0937 23C15.0937 21.4777 14.7337 19.9539 14.0537 18.5933L13.5808 17.6475C13.3364 17.1602 12.5393 17.1602 12.2949 17.6475L11.822 18.5933C11.1413 19.9539 10.7812 21.4777 10.7812 23C10.7812 23.1732 10.8021 23.3457 10.8114 23.5189C10.3471 23.1718 9.8174 22.9173 9.25031 22.7757L7.36144 22.3035C7.1185 22.241 6.85759 22.3143 6.67934 22.4926C6.50109 22.6708 6.4285 22.9296 6.49031 23.1747L6.96253 25.0642C7.15587 25.8355 7.55406 26.5413 8.11612 27.1026C8.67747 27.6647 9.38328 28.0636 10.1545 28.2562H10.1552L10.6382 28.377L9.73978 28.8262L10.3831 30.112L12.2187 29.1942V30.9062H7.1875C6.79003 30.9062 6.46875 31.2275 6.46875 31.625V34.5C6.46875 34.8975 6.79003 35.2187 7.1875 35.2187H7.97453L8.62859 41.7594C8.66525 42.1259 8.97431 42.4062 9.34375 42.4062H16.5312C16.9007 42.4062 17.2097 42.1259 17.2464 41.7594L17.9005 35.2187H18.6875C19.085 35.2187 19.4062 34.8975 19.4062 34.5V31.625C19.4062 31.2275 19.085 30.9062 18.6875 30.9062H13.6562V29.1942L15.4912 30.1113L16.1345 28.8255L15.2361 28.3762L15.7191 28.2555H15.7198C16.491 28.0622 17.1968 27.664 17.7581 27.1019C18.3202 26.5406 18.7191 25.8347 18.9117 25.0628L19.384 23.1739C19.4458 22.9288 19.3732 22.6701 19.1949 22.4918C19.0167 22.3136 18.7572 22.2403 18.5128 22.3028L16.6232 22.775C16.0569 22.9166 15.5272 23.1711 15.0628 23.5182C15.0729 23.3457 15.0937 23.1732 15.0937 23ZM15.8808 40.9688H9.99493L9.41993 35.2187H16.4565L15.8808 40.9688ZM17.9687 33.7812H7.90625V32.3437H17.9687V33.7812ZM12.9375 19.5974C13.4083 20.6648 13.6562 21.8327 13.6562 23C13.6562 24.1672 13.4083 25.3352 12.9375 26.4026C12.4667 25.3352 12.2187 24.1672 12.2187 23C12.2187 21.8327 12.4667 20.6648 12.9375 19.5974ZM9.13315 26.0856C8.75581 25.7082 8.48772 25.2332 8.3569 24.7149L8.17578 23.9883L8.90172 24.1694C9.42137 24.3002 9.89575 24.5683 10.2731 24.9457C10.6504 25.323 10.9185 25.7981 11.0493 26.3163L11.2305 27.043L10.5045 26.8618C9.98559 26.731 9.5105 26.4629 9.13315 26.0856ZM16.9726 24.1694L17.6992 23.9883L17.5181 24.7142C17.3873 25.2339 17.1192 25.7082 16.7418 26.0856C16.3645 26.4629 15.8894 26.731 15.3705 26.8618L14.6445 27.043L14.8257 26.317C14.9565 25.7974 15.2246 25.323 15.6019 24.9457C15.9792 24.5683 16.4543 24.3002 16.9726 24.1694Z" fill="#866E52" fill-opacity="0.5"/>
<path d="M3.59375 10.7812H12.9375C14.9191 10.7812 16.5312 9.16909 16.5312 7.1875C16.5312 5.20591 14.9191 3.59375 12.9375 3.59375C12.6227 3.59375 12.3072 3.63759 12.001 3.72312C11.4504 1.95859 9.82819 0.71875 7.90625 0.71875C5.52791 0.71875 3.59375 2.65291 3.59375 5.03125C2.00819 5.03125 0.71875 6.32069 0.71875 7.90625C0.71875 9.49181 2.00819 10.7812 3.59375 10.7812ZM3.59375 6.46875C3.78781 6.46875 3.97684 6.50756 4.15653 6.58375C4.40953 6.68941 4.69991 6.64484 4.90619 6.46659C5.11319 6.28834 5.20159 6.00731 5.13403 5.74281C5.06359 5.47184 5.03125 5.24544 5.03125 5.03125C5.03125 3.44569 6.32069 2.15625 7.90625 2.15625C9.40197 2.15625 10.626 3.28756 10.7532 4.78831C10.7733 5.03628 10.9207 5.25406 11.1413 5.36762C11.3627 5.48119 11.6265 5.47184 11.8385 5.34462C12.1857 5.13619 12.5551 5.03125 12.9375 5.03125C14.1263 5.03125 15.0938 5.99869 15.0938 7.1875C15.0938 8.37631 14.1263 9.34375 12.9375 9.34375H3.59375C2.80097 9.34375 2.15625 8.69903 2.15625 7.90625C2.15625 7.11347 2.80097 6.46875 3.59375 6.46875Z" fill="#866E52" fill-opacity="0.5"/>
</svg>
